<svg aria-hidden="true" xmlns="http://www.w3.org/2000/svg"><defs><symbol id="Logo" viewBox="0 0 64 32"><path fill="#fff" style="fill:var(--color1,#fff)" d="M19.921 24.083c-.599-1.666-1.833-2.5-3.701-2.5h-.589v10.278h.589c1.444 0 2.509-.569 3.196-1.707.579-.971.869-2.207.869-3.708-.001-.893-.123-1.68-.364-2.363zM9.807 24.206c.6 1.666 1.833 2.499 3.7 2.499h.589V16.427h-.589c-1.444 0-2.509.569-3.196 1.707-.577.971-.866 2.207-.867 3.708 0 .892.121 1.68.363 2.364zM0 .013h7.842v2.722H2.815v1.361h4.176v2.583H2.815v1.377h5.027v2.722H0V.013zM11.785 0h10.146l-5.073 10.997L11.785 0zm5.073 9.636L21.049.573h-8.367l4.176 9.063zM25.983.013h7.842v2.722h-5.027v1.361h4.176v2.583h-4.176v1.377h5.027v2.722h-7.842V.013zM38.651 10.762V0h.603l7.517 7.316V0h.572v10.765l-8.692-.003zM55.556 10.778V2.735h-4.068V.013h8.692v2.722h-4.068v8.043h-.557zM4.624 18.573c.681 0 1.222.103 1.624.309a2.703 2.703 0 0 1 1.516 2.474 2.59 2.59 0 0 1-.402 1.4 2.86 2.86 0 0 1-1.098 1.013 3.057 3.057 0 0 1 1.407 1.021c.374.464.576 1.043.572 1.639a2.787 2.787 0 0 1-.41 1.477 2.991 2.991 0 0 1-1.09 1.059 2.84 2.84 0 0 1-.758.278c-.278.062-.65.093-1.114.093H.107V18.571h4.516zM22.759 28.557c-.809-.706-1.209-1.766-1.199-3.178h2.521c-.01.588.165 1.036.526 1.346s.866.464 1.516.464c.536 0 .959-.088 1.268-.263s.464-.443.464-.804c0-.299-.157-.516-.472-.65-.3-.13-.614-.226-.936-.286a44.47 44.47 0 0 0-.572-.103 12.409 12.409 0 0 1-2.057-.567 3.59 3.59 0 0 1-1.454-1.005c-.392-.454-.588-1.052-.588-1.794s.196-1.374.588-1.895c.392-.521.915-.91 1.57-1.168a5.807 5.807 0 0 1 2.142-.387c.938 0 1.75.175 2.436.526s1.224.882 1.616 1.593c.182.301.303.635.356.982.041.305.061.613.062.92h-2.521c0-.557-.149-.967-.448-1.23s-.763-.394-1.392-.394c-.505 0-.897.088-1.175.263s-.418.412-.418.712c0 .33.186.572.557.727.456.18.927.32 1.407.418.928.186 1.652.363 2.173.534.525.173.993.486 1.353.905.381.433.572 1.041.572 1.825 0 .742-.206 1.382-.619 1.918s-.956.946-1.632 1.23a5.59 5.59 0 0 1-2.189.425c-1.495-.002-2.647-.356-3.457-1.062zM36.996 29.338v-8.043h-4.068v-2.722h8.692v2.722h-4.068v8.043h-.557zM44.543 18.573h7.842v2.722h-5.027v1.361h4.176v2.583h-4.176v1.377h5.027v2.722h-7.842V18.573zM64 29.338h-8.275V18.573h4.191c.897 0 1.629.16 2.196.48a3.34 3.34 0 0 1 1.299 1.268 3.49 3.49 0 0 1 .464 1.779 3.42 3.42 0 0 1-.742 2.158 3.493 3.493 0 0 1-1.871 1.261L64 29.339zm-7.702-9.822v5.552h3.975l-3.975-5.553zm0 9.249h6.62l-2.258-3.14-.48.015h-3.882v3.124zm.402-9.62 4.207 5.877a2.963 2.963 0 0 0 1.717-1.036 2.872 2.872 0 0 0 .681-1.887 2.948 2.948 0 0 0-.418-1.547 2.742 2.742 0 0 0-1.175-1.067c-.454-.227-1.047-.34-1.779-.34H56.7z"/></symbol><symbol id="Lupa" viewBox="0 0 32 32"><path d="M4.024 4.024C6.619 1.429 10.069 0 13.739 0s7.12 1.429 9.715 4.024a13.649 13.649 0 0 1 4.024 9.715 13.64 13.64 0 0 1-3.383 9.029l7.63 7.63a.94.94 0 0 1-1.327 1.327l-7.63-7.63a13.635 13.635 0 0 1-9.029 3.383c-3.67 0-7.12-1.429-9.715-4.024S0 17.409 0 13.739s1.429-7.12 4.024-9.715zm1.327 18.103c4.625 4.625 12.15 4.625 16.775 0s4.625-12.15 0-16.775c-2.313-2.313-5.35-3.469-8.388-3.469S7.662 3.04 5.35 5.352c-4.625 4.625-4.625 12.15 0 16.775z"/></symbol><symbol id="Strilka" viewBox="0 0 52 32"><path d="M26 32 .019 2h51.962L26 32z"/></symbol><symbol id="Map" viewBox="0 0 26 32"><path fill="#fff" style="fill:var(--color2,#fff)" d="M12.075 0C5.417 0 0 4.99 0 11.123 0 18.832 12.087 32 12.087 32S24.15 18.453 24.15 11.123C24.15 4.99 18.733 0 12.075 0zm3.643 14.38c-1.005.925-2.324 1.388-3.643 1.388s-2.639-.463-3.643-1.388c-2.009-1.85-2.009-4.861 0-6.712.973-.896 2.267-1.39 3.643-1.39s2.67.494 3.643 1.39c2.009 1.851 2.009 4.862 0 6.712z"/></symbol><symbol id="Ticket" viewBox="0 0 44 32"><path d="M4.91 1.27H0v29.46h4.91V1.27zm12.35 0h-4.91v29.46h4.91V1.27zm7.439 0h-4.91v29.46h4.91V1.27zm19.491 0h-7.291v29.46h7.291V1.27zm-34.37 0H7.439v29.46H9.82V1.27zm19.64 0h-2.381v29.46h2.381V1.27zm4.91 0h-2.381v29.46h2.381V1.27z"/></symbol><symbol id="icon-Close" viewBox="0 0 32 32"><path fill="#4c00fe" style="fill:var(--color4,#4c00fe)" d="M1.646 32a1.646 1.646 0 0 1-1.163-2.811L29.19.482a1.646 1.646 0 1 1 2.328 2.329L2.811 31.517A1.65 1.65 0 0 1 1.646 32z"/><path fill="#4c00fe" style="fill:var(--color4,#4c00fe)" d="M30.355 32a1.63 1.63 0 0 1-1.163-.483L.483 2.811A1.647 1.647 0 0 1 2.812.482l28.707 28.707A1.646 1.646 0 0 1 30.356 32z"/></symbol></defs></svg>